<?xml version="1.0" encoding="UTF-8"?>
<svg id="uuid-2496563d-36b4-42e3-9853-28ef6bc4db87" data-name="Ebene 1" xmlns="http://www.w3.org/2000/svg" viewBox="0 0 1575.9 317.32">
  <defs>
    <style>
      .uuid-87ec6527-847a-4aa3-8767-4c6b11aa2b5c {
        fill: #fff;
        stroke-width: 0px;
      }
    </style>
  </defs>
  <g>
    <path class="uuid-87ec6527-847a-4aa3-8767-4c6b11aa2b5c" d="M534.82,120.07c-2.28-2.88-5.37-5.01-9.27-6.39-3.9-1.38-7.59-2.07-11.07-2.07-2.04,0-4.14.24-6.3.72-2.16.48-4.2,1.23-6.12,2.25-1.92,1.02-3.48,2.37-4.68,4.05-1.2,1.68-1.8,3.72-1.8,6.12,0,3.84,1.44,6.78,4.32,8.82,2.88,2.04,6.51,3.78,10.89,5.22,4.38,1.44,9.09,2.88,14.13,4.32,5.04,1.44,9.75,3.48,14.13,6.12,4.38,2.64,8.01,6.18,10.89,10.62,2.88,4.44,4.32,10.38,4.32,17.82s-1.32,13.26-3.96,18.54c-2.64,5.28-6.21,9.66-10.71,13.14-4.5,3.48-9.72,6.06-15.66,7.74-5.94,1.68-12.21,2.52-18.81,2.52-8.28,0-15.96-1.26-23.04-3.78-7.08-2.52-13.68-6.6-19.8-12.24l19.98-21.96c2.88,3.84,6.51,6.81,10.89,8.91,4.38,2.1,8.91,3.15,13.59,3.15,2.28,0,4.59-.27,6.93-.81s4.44-1.35,6.3-2.43c1.86-1.08,3.36-2.46,4.5-4.14,1.14-1.68,1.71-3.66,1.71-5.94,0-3.84-1.47-6.87-4.41-9.09-2.94-2.22-6.63-4.11-11.07-5.67-4.44-1.56-9.24-3.12-14.4-4.68-5.16-1.56-9.96-3.66-14.4-6.3-4.44-2.64-8.13-6.12-11.07-10.44-2.94-4.32-4.41-10.02-4.41-17.1s1.35-12.84,4.05-18c2.7-5.16,6.3-9.48,10.8-12.96,4.5-3.48,9.69-6.09,15.57-7.83,5.88-1.74,11.94-2.61,18.18-2.61,7.2,0,14.16,1.02,20.88,3.06,6.72,2.04,12.78,5.46,18.18,10.26l-19.26,21.06Z"/>
    <path class="uuid-87ec6527-847a-4aa3-8767-4c6b11aa2b5c" d="M594.22,88.93h86.58v25.92h-58.5v23.76h55.26v25.92h-55.26v25.92h61.74v25.92h-89.82v-127.44Z"/>
    <path class="uuid-87ec6527-847a-4aa3-8767-4c6b11aa2b5c" d="M724.18,88.93h28.08v127.44h-28.08v-127.44Z"/>
    <path class="uuid-87ec6527-847a-4aa3-8767-4c6b11aa2b5c" d="M820.47,113.77h-36.36v-24.84h100.8v24.84h-36.36v102.6h-28.08v-102.6Z"/>
    <path class="uuid-87ec6527-847a-4aa3-8767-4c6b11aa2b5c" d="M903.81,88.93h30.6l20.34,81.72h.36l26.64-81.72h26.1l26.46,83.88h.36l21.42-83.88h28.44l-37.26,127.44h-25.02l-28.08-88.2h-.36l-28.08,88.2h-24.12l-37.8-127.44Z"/>
    <path class="uuid-87ec6527-847a-4aa3-8767-4c6b11aa2b5c" d="M1116.03,88.93h86.58v25.92h-58.5v23.76h55.26v25.92h-55.26v25.92h61.74v25.92h-89.82v-127.44Z"/>
    <path class="uuid-87ec6527-847a-4aa3-8767-4c6b11aa2b5c" d="M1246.35,88.93h49.32c6.48,0,12.63.63,18.45,1.89,5.82,1.26,10.92,3.36,15.3,6.3,4.38,2.94,7.86,6.9,10.44,11.88,2.58,4.98,3.87,11.19,3.87,18.63,0,9-2.34,16.65-7.02,22.95s-11.52,10.29-20.52,11.97l32.4,53.82h-33.66l-26.64-50.94h-13.86v50.94h-28.08v-127.44ZM1274.43,141.67h16.56c2.52,0,5.19-.09,8.01-.27,2.82-.18,5.37-.72,7.65-1.62,2.28-.9,4.17-2.31,5.67-4.23,1.5-1.92,2.25-4.62,2.25-8.1,0-3.24-.66-5.82-1.98-7.74-1.32-1.92-3-3.39-5.04-4.41-2.04-1.02-4.38-1.71-7.02-2.07-2.64-.36-5.22-.54-7.74-.54h-18.36v28.98Z"/>
    <path class="uuid-87ec6527-847a-4aa3-8767-4c6b11aa2b5c" d="M1381.89,88.93h28.08v52.92l49.5-52.92h36.72l-56.7,59.22,61.56,68.22h-39.24l-51.84-60.48v60.48h-28.08v-127.44Z"/>
  </g>
  <g>
    <rect class="uuid-87ec6527-847a-4aa3-8767-4c6b11aa2b5c" x="72.36" y="136.13" width="135" height="27"/>
    <rect class="uuid-87ec6527-847a-4aa3-8767-4c6b11aa2b5c" x="72.36" y="82.13" width="135" height="27"/>
    <rect class="uuid-87ec6527-847a-4aa3-8767-4c6b11aa2b5c" x="72.36" y="190.13" width="135" height="27"/>
    <rect class="uuid-87ec6527-847a-4aa3-8767-4c6b11aa2b5c" x="234.46" y="136.13" width="135" height="27" transform="translate(451.59 -152.32) rotate(90)"/>
    <rect class="uuid-87ec6527-847a-4aa3-8767-4c6b11aa2b5c" x="180.41" y="136.13" width="135" height="27" transform="translate(397.54 -98.27) rotate(90)"/>
    <rect class="uuid-87ec6527-847a-4aa3-8767-4c6b11aa2b5c" x="288.46" y="136.13" width="135" height="27" transform="translate(505.59 -206.32) rotate(90)"/>
  </g>
</svg>